<?xml version="1.0" standalone="no"?>
<!DOCTYPE svg PUBLIC "-//W3C//DTD SVG 20010904//EN"
 "http://www.w3.org/TR/2001/REC-SVG-20010904/DTD/svg10.dtd">
<svg version="1.0" xmlns="http://www.w3.org/2000/svg"
 width="900.000000pt" height="471.000000pt" viewBox="0 0 900.000000 471.000000"
 preserveAspectRatio="xMidYMid meet">
<metadata>
Created by potrace 1.10, written by Peter Selinger 2001-2011
</metadata>
<g transform="translate(0.000000,471.000000) scale(0.100000,-0.100000)"
fill="#f3eded" stroke="none">
<path d="M1755 3478 c-27 -5 -68 -13 -90 -19 -22 -6 -56 -14 -75 -19 -80 -19
-248 -97 -351 -163 -163 -104 -325 -289 -432 -491 -21 -38 -37 -76 -37 -83 0
-8 -6 -27 -14 -41 -14 -29 -34 -94 -60 -204 -22 -91 -22 -382 0 -476 23 -99
45 -174 60 -204 8 -14 14 -32 14 -40 0 -16 55 -126 95 -188 108 -171 255 -317
423 -418 29 -18 56 -32 61 -32 5 0 14 -7 21 -15 7 -8 20 -15 30 -15 10 0 23
-7 30 -15 7 -8 21 -15 32 -15 11 0 32 -6 46 -14 15 -7 52 -20 82 -29 148 -41
197 -47 351 -47 166 0 273 16 394 60 33 12 71 24 84 27 13 3 43 16 67 29 24
13 65 35 90 49 139 75 327 249 422 392 53 79 142 254 142 279 1 11 7 30 15 44
8 14 14 38 15 53 0 16 5 38 11 49 6 12 18 81 25 155 12 114 12 152 0 266 -7
74 -19 143 -25 155 -6 11 -11 33 -11 49 -1 15 -7 39 -15 53 -8 14 -14 33 -15
43 0 24 -79 184 -121 245 -18 26 -46 67 -63 92 -34 50 -220 240 -235 240 -5 0
-16 6 -23 13 -58 57 -289 171 -398 197 -19 5 -53 13 -75 19 -126 31 -351 41
-470 19z m380 -98 c81 -10 149 -27 187 -46 14 -8 33 -14 41 -14 22 0 150 -66
232 -119 81 -53 227 -190 291 -273 24 -31 44 -60 44 -64 0 -4 7 -15 15 -24 19
-21 105 -195 105 -213 0 -8 7 -28 15 -43 8 -16 15 -39 15 -50 0 -12 7 -41 16
-65 25 -68 26 -410 1 -499 -50 -179 -79 -253 -141 -355 -73 -122 -229 -295
-298 -331 -16 -8 -28 -18 -28 -23 0 -5 -8 -11 -17 -15 -10 -3 -45 -23 -78 -45
-33 -22 -67 -40 -76 -40 -9 -1 -22 -8 -29 -16 -7 -8 -21 -15 -30 -15 -10 0
-31 -6 -47 -14 -33 -17 -110 -39 -213 -60 -171 -36 -442 -9 -608 60 -18 8 -39
14 -46 14 -8 0 -19 7 -26 15 -7 8 -19 15 -27 15 -8 0 -35 13 -60 30 -24 16
-46 30 -49 30 -5 0 -47 29 -93 65 -55 42 -234 230 -265 279 -212 331 -254 712
-121 1076 21 56 24 64 34 80 4 8 16 31 26 50 39 76 122 189 194 264 71 73 166
154 201 169 8 4 29 16 45 26 57 37 167 91 184 91 9 0 26 7 37 15 10 8 29 15
41 15 13 0 40 6 60 14 86 32 286 39 468 16z"/>
<path d="M2067 2953 c-4 -3 -7 -12 -7 -20 0 -15 -38 -100 -111 -248 -27 -55
-49 -103 -49 -106 0 -4 120 -7 266 -7 l266 0 -7 27 c-4 14 -13 33 -21 42 -8 8
-14 20 -14 26 0 6 -6 24 -14 40 -7 15 -21 46 -31 68 -9 22 -23 53 -31 68 -8
16 -14 35 -14 43 0 8 -7 28 -15 44 l-16 30 -98 0 c-54 0 -101 -3 -104 -7z
m140 -148 c23 -16 45 -77 37 -100 -8 -19 -56 -28 -107 -20 -56 10 -56 10 -43
47 29 82 66 106 113 73z"/>
<path d="M2115 2480 c-4 -6 -4 -49 0 -95 6 -69 5 -85 -6 -86 -8 0 -162 -1
-344 -2 l-330 -2 0 -403 0 -403 508 -2 507 -2 0 409 0 408 -107 -3 -108 -4 0
95 0 95 -57 3 c-33 2 -59 -2 -63 -8z m220 -279 c3 -6 7 -66 8 -133 l2 -123
-405 0 -405 0 -3 124 c-1 70 1 127 7 130 18 11 789 13 796 2z m1 -363 c7 -5
10 -179 5 -251 -1 -4 -182 -6 -403 -5 l-403 3 -3 119 c-1 66 -1 125 1 130 5
12 785 15 803 4z"/>
<path d="M1896 2117 c-12 -9 -17 -23 -14 -47 2 -27 9 -37 31 -44 41 -15 81 3
85 38 6 53 -56 86 -102 53z"/>
<path d="M1896 1757 c-12 -9 -17 -23 -14 -47 2 -27 9 -37 31 -44 43 -16 81 3
85 41 5 51 -58 82 -102 50z"/>
<path d="M5895 2736 c-109 -18 -194 -80 -246 -180 -32 -60 -31 -223 1 -284 33
-62 147 -152 194 -152 8 0 27 -7 42 -15 16 -8 39 -15 51 -15 21 0 49 -10 139
-51 85 -39 121 -102 102 -179 -12 -45 -66 -100 -99 -100 -11 0 -29 -5 -40 -11
-23 -12 -101 2 -159 29 -80 38 -161 124 -209 223 -22 48 -57 70 -68 43 -3 -8
0 -36 7 -62 7 -26 14 -99 15 -162 1 -99 3 -115 18 -118 10 -2 17 3 17 11 0 8
7 20 15 27 17 14 68 6 181 -26 71 -20 195 -18 256 4 61 21 157 105 189 164 20
38 23 58 23 158 0 101 -3 120 -22 156 -42 77 -127 132 -262 170 -136 37 -172
51 -223 84 -73 48 -73 150 0 206 28 21 48 27 111 31 68 4 82 2 122 -20 52 -28
141 -132 167 -195 18 -42 47 -62 64 -45 6 6 6 28 -2 59 -6 27 -11 89 -12 137
0 48 -4 90 -9 93 -5 3 -17 -1 -27 -10 -21 -19 -54 -21 -84 -4 -42 22 -198 44
-252 34z m-22 -421 c39 -19 78 -35 86 -35 23 0 95 -26 150 -54 47 -24 101 -82
101 -109 0 -21 -55 -10 -135 28 -38 18 -86 36 -105 40 -67 14 -162 68 -192
109 -15 21 -28 43 -28 48 0 18 55 6 123 -27z"/>
<path d="M3704 2716 c-9 -23 4 -34 46 -38 l35 -3 0 -455 0 -455 -43 -3 c-38
-3 -43 -6 -40 -25 3 -21 7 -22 78 -17 41 3 111 4 155 4 279 -5 540 -3 546 4 4
4 8 74 10 157 4 131 2 150 -12 153 -11 2 -22 -14 -38 -55 -34 -90 -98 -164
-161 -189 -8 -3 -25 -11 -38 -17 -13 -6 -58 -11 -100 -12 l-77 0 0 220 0 220
29 3 c16 2 48 -4 72 -13 49 -19 72 -50 98 -137 11 -35 23 -58 32 -58 17 0 16
-21 16 220 0 241 1 220 -17 220 -8 0 -17 -12 -21 -27 -3 -16 -17 -52 -31 -81
-29 -59 -68 -83 -138 -86 l-40 -1 -3 203 c-3 228 1 244 51 236 141 -22 191
-43 229 -97 31 -43 58 -94 58 -109 1 -16 35 -58 48 -58 5 0 12 8 14 18 4 16
-8 181 -18 250 l-5 32 -327 0 c-180 0 -344 3 -364 6 -30 5 -39 3 -44 -10z
m244 -178 c1 -40 11 -191 17 -248 3 -30 5 -59 5 -65 -5 -127 -19 -324 -25
-337 -9 -22 -32 -30 -42 -15 -11 17 -13 648 -2 670 14 25 47 22 47 -5z"/>
<path d="M6421 2721 c-26 -17 -4 -43 33 -40 19 2 38 0 42 -3 8 -9 17 -864 9
-895 -5 -20 -12 -23 -51 -23 -41 0 -45 -2 -42 -22 3 -22 6 -23 78 -18 41 2
113 4 160 4 367 -5 534 -3 546 7 8 6 11 22 8 37 -2 15 2 78 9 139 7 62 10 118
6 124 -11 19 -49 -1 -55 -29 -13 -63 -91 -182 -118 -182 -5 0 -17 -6 -25 -13
-41 -34 -220 -64 -235 -39 -3 5 -7 105 -8 223 l-3 214 37 3 c77 6 153 -55 165
-135 3 -21 13 -46 21 -55 35 -41 38 -25 37 200 -1 183 -3 217 -16 214 -20 -4
-39 -32 -39 -57 0 -12 -13 -40 -29 -62 -33 -45 -98 -77 -147 -71 l-29 3 4 215
c2 118 5 217 7 219 8 9 96 0 151 -14 32 -8 73 -28 93 -44 32 -26 90 -122 103
-172 4 -15 12 -20 29 -17 26 3 27 15 9 113 -6 33 -11 86 -11 118 l0 57 -327 0
c-181 0 -344 3 -363 5 -19 3 -41 2 -49 -4z m247 -186 c9 -94 10 -161 3 -173
-5 -9 -2 -27 7 -44 14 -29 13 -81 -5 -258 -1 -19 -3 -42 -2 -50 2 -34 -2 -135
-6 -138 -2 -2 -12 1 -23 7 -24 13 -30 68 -26 251 2 74 3 144 3 155 0 11 1 34
2 50 1 17 1 41 0 55 -4 60 -1 162 5 171 12 20 39 4 42 -26z"/>
<path d="M4985 2703 c-4 -10 -11 -31 -15 -48 -12 -44 -38 -111 -64 -169 -13
-28 -33 -76 -45 -106 -12 -30 -26 -64 -30 -75 -18 -42 -71 -191 -71 -201 -1
-5 -9 -27 -20 -49 -11 -22 -19 -45 -20 -51 0 -7 -7 -25 -15 -40 -8 -16 -15
-37 -15 -46 0 -9 -4 -20 -10 -23 -5 -3 -10 -13 -10 -22 0 -8 -6 -29 -14 -46
-8 -18 -16 -40 -19 -49 -4 -10 -19 -18 -38 -20 -34 -3 -44 -15 -31 -36 6 -9
41 -13 113 -15 l104 -2 3 27 c3 26 1 27 -45 30 -53 3 -56 12 -27 72 8 16 14
34 14 40 0 6 6 23 14 37 7 14 16 39 20 55 20 84 16 81 160 86 146 5 160 1 169
-55 5 -34 20 -82 43 -132 7 -16 16 -47 20 -67 l6 -38 -52 0 c-48 0 -51 -2 -48
-22 3 -20 8 -23 48 -21 60 3 335 3 385 0 34 -2 40 1 43 20 3 19 -2 22 -34 25
-21 2 -40 10 -44 18 -4 8 -14 30 -23 48 -9 19 -17 41 -17 51 0 9 -7 26 -15 37
-8 10 -15 28 -15 40 0 11 -7 29 -15 40 -8 10 -15 28 -15 39 0 11 -6 29 -14 40
-7 11 -16 31 -19 45 -3 14 -15 50 -27 80 -12 30 -25 70 -30 89 -5 18 -13 38
-19 44 -6 6 -11 20 -11 32 0 11 -6 29 -14 40 -7 11 -16 31 -19 45 -3 14 -15
50 -27 80 -12 30 -26 69 -30 85 -5 17 -15 47 -22 68 l-13 37 -61 0 c-50 0 -63
-4 -69 -17z m103 -244 c7 -28 21 -62 32 -76 11 -14 22 -41 26 -62 3 -20 17
-59 30 -88 13 -28 24 -60 24 -71 0 -11 6 -25 14 -31 8 -7 17 -31 21 -54 4 -23
15 -57 26 -75 10 -18 19 -46 19 -62 0 -16 5 -32 10 -35 18 -11 11 -45 -9 -45
-25 0 -61 45 -61 76 0 12 -4 26 -10 29 -5 3 -10 15 -10 27 0 11 -9 31 -20 45
-11 14 -20 34 -20 45 0 10 -6 31 -13 46 -8 15 -19 57 -26 95 -6 37 -20 82 -31
100 -11 17 -20 41 -20 52 0 11 -6 30 -14 41 -17 24 -23 64 -13 82 17 25 34 10
45 -39z m-136 -51 c9 -18 23 -60 33 -93 9 -33 23 -75 31 -93 8 -18 14 -38 14
-45 0 -7 7 -25 15 -41 9 -17 12 -33 7 -38 -5 -5 -60 -7 -123 -6 -126 3 -125 2
-94 73 26 60 75 214 75 237 0 48 21 50 42 6z"/>
</g>
</svg>
