<svg width="13.000000" height="15.000000" viewBox="0 0 13 15" fill="none" xmlns="http://www.w3.org/2000/svg" xmlns:xlink="http://www.w3.org/1999/xlink">
	<desc>
			Created with Pixso.
	</desc>
	<defs/>
	<path id="Vector" d="M8.42 1.62C9.21 2.53 9.71 3.71 9.83 4.97C9.95 6.24 9.67 7.51 9.06 8.57C9.17 8.67 9.26 8.78 9.39 8.89C9.57 9.05 9.81 9.25 10.11 9.48C10.42 9.72 10.61 9.88 10.7 9.96C11.08 10.27 11.35 10.53 11.54 10.75C11.83 11.07 12.08 11.4 12.3 11.75C12.53 12.1 12.69 12.45 12.83 12.8C12.96 13.15 13.02 13.49 12.99 13.81C12.97 14.14 12.86 14.41 12.67 14.63C12.47 14.85 12.23 14.97 11.94 15C11.66 15.01 11.35 14.95 11.05 14.8C10.74 14.66 10.42 14.46 10.12 14.21C9.81 13.96 9.51 13.68 9.22 13.35C9.03 13.14 8.8 12.83 8.53 12.42C8.44 12.28 8.31 12.07 8.11 11.75C7.91 11.43 7.75 11.17 7.6 10.96C7.46 10.76 7.35 10.61 7.21 10.46C6.28 11.01 5.22 11.21 4.18 11.03C3.14 10.85 2.18 10.31 1.43 9.47C-0.48 7.3 -0.48 3.78 1.43 1.62C1.89 1.1 2.44 0.7 3.03 0.42C3.64 0.14 4.28 0 4.92 0C5.57 0 6.21 0.14 6.82 0.42C7.41 0.7 7.96 1.1 8.42 1.62ZM7.15 8.04C7.74 7.38 8.07 6.48 8.07 5.54C8.07 4.6 7.74 3.71 7.15 3.04C6.85 2.71 6.51 2.46 6.13 2.28C5.75 2.1 5.34 2.01 4.93 2.01C4.52 2.01 4.1 2.1 3.73 2.28C3.35 2.46 3 2.71 2.71 3.04C2.42 3.37 2.18 3.76 2.03 4.19C1.87 4.62 1.78 5.08 1.78 5.54C1.78 6 1.87 6.46 2.03 6.89C2.18 7.32 2.42 7.71 2.71 8.04C3 8.37 3.35 8.63 3.73 8.81C4.1 8.99 4.52 9.07 4.93 9.07C5.34 9.07 5.75 8.99 6.13 8.81C6.51 8.63 6.85 8.37 7.15 8.04Z" fill="#D7B586" fill-opacity="1.000000" fill-rule="nonzero"/>
</svg>
